<svg width="148" height="149" viewBox="0 0 148 149" fill="none" xmlns="http://www.w3.org/2000/svg">
<path d="M82.7871 45.2612C82.7871 45.2612 109.109 49.3878 107.113 86.9682C107.106 87.1076 110.156 89.1369 110.395 89.3537C112.522 91.2814 114.307 93.7502 115.088 96.6381C117.867 106.922 107.931 117.518 99.896 120.331C96.8948 121.381 93.7226 121.891 90.5441 121.984C69.8815 122.587 42.5253 109.428 41.1203 83.7304C41.07 82.8083 41.0576 81.8853 41.0812 80.9645C41.2058 76.0851 42.3811 71.333 44.1525 66.9207C44.1517 66.9209 55.6514 38.3413 82.7871 45.2612Z" fill="#A47539"/>
<g style="mix-blend-mode:multiply" opacity="0.5">
<path d="M107.778 87.3653C107.493 88.0651 107.209 88.9594 107.129 89.4709C106.789 91.6646 107.538 93.9298 108.84 95.5582C110.075 97.1044 111.84 98.107 113.549 98.485C114.126 98.6128 114.824 98.6782 115.435 98.6987C114.794 92.3458 109.631 88.5344 107.778 87.3653Z" fill="#FEB3A4"/>
</g>
<g style="mix-blend-mode:multiply" opacity="0.5">
<path d="M70.6754 104.062C75.5649 103.008 78.6008 97.8462 77.4564 92.5333C76.3119 87.2203 71.4204 83.7679 66.5309 84.8221C61.6414 85.8763 58.6055 91.0378 59.75 96.3508C60.8944 101.664 65.7859 105.116 70.6754 104.062Z" fill="#FEB3A4"/>
</g>
<path opacity="0.3" d="M94.6117 89.201C94.6117 89.201 98.7871 85.2204 102.02 88.9629L94.6117 89.201Z" fill="#633B1D"/>
<path d="M55.6799 109.035C41.7794 116.015 29.1647 98.5132 33.2061 88.6746C35.7842 82.3988 43.3 81.9106 47.6549 87.6428C50.2249 91.0258 52.3044 95.3502 53.485 99.487" fill="#A47539"/>
<path opacity="0.3" d="M44.2311 93.4166C46.0195 95.2397 47.457 97.9437 49.224 99.4521C48.8975 96.9281 48.3763 94.2329 47.1528 91.9585C45.9105 89.6484 43.6512 87.7455 41.3506 87.9024C38.4995 88.0971 36.1519 91.4241 35.8499 94.4404C36.0304 92.6354 39.6546 91.4136 41.0378 91.5845C43.2037 95.6749 44.042 103.737 44.042 103.737C45.8467 99.1728 45.1163 95.5831 44.2311 93.4166Z" fill="#633B1D"/>
<path d="M92.1045 56.5929C85.5929 65.6195 70.8669 84.1743 50.631 90.7938C49.2619 88.4536 46.8242 85.9996 42.4164 86.0799C36.9066 86.1802 34.9031 90.192 34.9031 90.192C34.9031 90.192 28.4917 100.924 43.318 107.744C47.4253 108.546 48.7276 108.546 52.0335 107.142C54.2708 108.88 61.37 114.805 63.8544 115.767C63.2199 119.144 62.0998 127.562 63.6225 131.414C60.7173 131.681 53.6364 133.159 48.0264 130.11C47.4615 126.675 46.9647 122.177 47.8489 120.462C46.7933 122.189 44.8892 126.132 44.8892 128.405C41.6835 127.302 34.5509 124.232 31.6658 120.782C27.1912 99.7201 25.5865 48.6695 70.8669 44.3568C74.8406 43.8887 84.9718 44.2966 91.7038 48.8701C100.119 54.587 104.326 62.2094 105.929 69.8319C102.49 68.2272 94.9095 63.3328 92.1045 56.5929Z" fill="#E2BA87"/>
<path d="M108.634 128.405C107.271 126.479 108.066 117.74 108.634 114.765C103.024 119.478 99.7179 121.785 88.1975 122.086C90.2011 125.095 98.015 126.198 98.9166 126.599L100.519 125.496V127.101C102.683 127.823 106.831 128.271 108.634 128.405Z" fill="#E2BA87"/>
<mask id="mask0_108_983" style="mask-type:alpha" maskUnits="userSpaceOnUse" x="70" y="44" width="36" height="26">
<path d="M91.2023 48.6695C84.4703 44.096 74.8399 43.8887 70.8662 44.3568C71.9635 50.3077 75.3485 62.9717 84.6906 66.0207C87.4298 62.4665 90.6996 59.1586 92.1038 56.5929C94.9088 63.3328 102.489 68.2272 105.928 69.8319C104.326 62.2094 99.6172 54.3864 91.2023 48.6695Z" fill="#E2BA87"/>
</mask>
<g mask="url(#mask0_108_983)">
<path d="M89.6862 55.5525C89.6862 55.5525 88.0279 53.585 84.4109 53.9137C84.4109 53.9137 86.9732 52.5206 88.6306 52.6845C88.6306 52.6845 84.1095 49.3239 77.4781 51.4553C77.4781 51.4553 82.1499 48.1766 85.8431 48.5864C85.8431 48.5864 81.9247 46.8655 79.4377 47.2752C79.4377 47.2752 81.3973 44.816 83.9588 44.898C83.9588 44.898 81.9239 41.2915 78.7588 40.1443C78.7588 40.1443 85.0889 41.948 86.7464 43.2591C90.4388 44.816 93.8298 49.4067 93.8298 49.4067C92.6997 48.7511 90.8908 48.915 90.8908 48.915C93.8298 50.7187 96.0908 54.0784 96.0908 54.0784C94.6594 53.0951 92.9258 53.4229 92.9258 53.4229C95.7141 56.2099 96.6182 59.8163 96.6182 59.8163C96.2415 58.6691 93.5285 57.2751 93.5285 57.2751C94.5832 59.1608 94.8092 62.1927 94.8092 62.1927L92.5483 59.2418C92.5483 59.2418 87.9518 63.0941 86.7456 63.5858C86.7456 63.5858 90.2119 59.9793 90.438 58.3404C90.438 58.3404 85.238 59.7335 81.0935 60.308C81.0952 60.3062 86.8979 55.8803 89.6862 55.5525Z" fill="#D9AC74"/>
</g>
<path d="M78.0777 65.4189C75.2728 68.9627 66.1366 77.5747 52.0316 83.6727C56.5062 80.8644 67.9798 73.2821 78.0777 65.4189Z" fill="#D9AC74"/>
<path d="M40.8117 83.6727C48.9862 66.3416 65.5889 56.526 72.8685 53.7845C54.1153 56.994 41.6131 75.5153 37.7062 84.3748C38.4275 84.0539 40.077 83.773 40.8117 83.6727Z" fill="#D9AC74"/>
<path d="M36.6042 104.635C37.0049 105.136 38.167 105.918 38.8081 106.239C38.5497 110.637 38.158 119.173 38.3589 122.958C38.412 123.493 38.4623 123.976 38.5076 124.393C38.4402 124.067 38.3917 123.576 38.3589 122.958C37.9819 119.159 37.4655 112.765 37.606 109.248C36.8714 111.923 35.6225 112.819 36.504 123.891C35.5691 116.737 34.1198 108.967 36.6042 104.635Z" fill="#D9AC74"/>
<path d="M103.623 118.676C104.184 118.435 105.126 117.773 105.526 117.472C104.805 118.676 105.092 124.727 105.326 127.602C104.845 127.201 104.525 125.697 104.424 124.995C104.104 126.038 103.489 126.098 103.623 127.602C102.741 125.596 103.523 121.885 103.623 118.676Z" fill="#D9AC74"/>
<path d="M58.5431 117.071C57.5814 125.817 58.0422 128.204 58.8436 131.915H56.8401H54.8365C53.394 124.854 57.0739 121.484 58.5431 117.071Z" fill="#D9AC74"/>
<path d="M99.1093 98.8391C100.981 98.891 102.776 98.3544 104.322 96.744C105.131 95.9022 105.951 95.4388 107.112 96.159C109.891 97.8836 110.545 102.192 109.798 105.081C108.978 108.251 106.508 110.807 103.661 112.474C96.0002 116.959 90.1244 115.949 82.2853 113.082C76.1151 110.826 67.773 106.278 69.8876 98.4504C72.5062 88.7589 83.7916 93.4121 90.1592 96.0265C92.8629 97.1376 96.0865 98.7549 99.1093 98.8391Z" fill="white"/>
<mask id="mask1_108_983" style="mask-type:alpha" maskUnits="userSpaceOnUse" x="69" y="92" width="42" height="24">
<path d="M99.1093 98.8392C100.981 98.8911 102.776 98.3545 104.322 96.7441C105.131 95.9023 105.951 95.4389 107.112 96.1591C109.891 97.8837 110.545 102.192 109.798 105.081C108.978 108.251 106.508 110.807 103.661 112.474C96.0002 116.959 90.1244 115.95 82.2853 113.082C76.1151 110.826 67.773 106.278 69.8876 98.4505C72.5062 88.7591 83.7916 93.4122 90.1592 96.0266C92.8629 97.1377 96.0865 98.755 99.1093 98.8392Z" fill="white"/>
</mask>
<g mask="url(#mask1_108_983)">
<path fill-rule="evenodd" clip-rule="evenodd" d="M73.5509 109.604L81.5703 89.3178L82.6866 89.7611L74.6672 110.047L73.5509 109.604ZM90.029 116.158L95.5681 94.8722L96.73 95.176L91.1909 116.462L90.029 116.158ZM106.515 111.019L103.459 95.413L104.637 95.1811L107.693 110.787L106.515 111.019Z" fill="#D1D3D4"/>
</g>
<path d="M88.1013 82.8742C88.0966 85.2564 86.8549 87.1899 84.2765 86.7936C82.4205 86.2956 81.185 84.9843 81.1899 82.4861C81.1949 79.8685 82.7161 78.1698 84.2932 78.1668C86.4014 78.1628 88.1059 80.492 88.1013 82.8742Z" fill="#2A1200"/>
<path fill-rule="evenodd" clip-rule="evenodd" d="M101.351 81.3722C102.483 81.439 104.042 81.3203 105.089 80.5931C105.463 81.253 105.681 82.0772 105.679 82.8312C105.676 84.428 104.955 86.1428 103.11 85.9457C101.561 85.7803 101.165 83.7425 101.167 82.7394C101.168 82.2665 101.233 81.8006 101.351 81.3722Z" fill="#2A1200"/>
<path d="M88.4671 70.3664C85.7154 70.0128 82.8171 71.1367 80.9184 73.282C80.3061 73.9737 80.1685 75.1684 80.8572 75.9029C81.4934 76.5823 82.6153 76.7589 83.2705 76.0175C83.4669 75.7953 83.6727 75.584 83.8918 75.3873C83.9599 75.326 84.1512 75.2148 84.2096 75.1258C84.2429 75.102 84.2756 75.0783 84.3098 75.0553C84.5202 74.9123 84.7371 74.7807 84.9596 74.6604C85.0872 74.5916 85.2161 74.5275 85.3467 74.4664C85.388 74.4473 85.4293 74.4291 85.4714 74.4107C85.587 74.3865 85.7184 74.3189 85.8236 74.2863C85.9607 74.2437 86.0984 74.2058 86.2379 74.1717C86.4812 74.1123 86.7274 74.0654 86.9751 74.032C87.0099 74.0273 87.044 74.0234 87.0789 74.0195C87.213 74.0157 87.3468 74.0086 87.4814 74.0095C87.7677 74.0118 88.0532 74.0341 88.3381 74.0702C89.2273 74.1848 90.1151 73.2812 90.1092 72.3219C90.1014 71.266 89.4197 70.4892 88.4671 70.3664Z" fill="#71472D"/>
<path d="M105.976 77.979C104.49 78.7878 102.785 78.9696 101.25 78.5253C100.836 78.4053 100.457 78.0436 100.28 77.6436C100.105 77.2496 100.07 76.6854 100.242 76.2568C100.421 75.8121 100.727 75.389 101.158 75.1779C101.595 74.9638 102.041 74.9088 102.491 75.0384C102.565 75.0598 102.64 75.0723 102.715 75.0899C102.949 75.1165 103.184 75.1235 103.42 75.1134C103.705 75.0703 103.985 75.0008 104.262 74.9054C104.358 74.861 104.457 74.8216 104.551 74.7705C104.959 74.5493 105.468 74.4965 105.885 74.6309C106.284 74.7596 106.693 75.1036 106.854 75.5133C107.021 75.9375 107.076 76.4418 106.892 76.9001C106.709 77.357 106.407 77.7448 105.976 77.979Z" fill="#71472D"/>
</svg>
