<svg width="108" height="122" viewBox="0 0 108 122" fill="none" xmlns="http://www.w3.org/2000/svg">
<path d="M45.5271 22.7508C45.5271 22.7508 19.0979 26.8868 21.1021 64.5533C21.1094 64.6929 18.0463 66.7269 17.8063 66.9442C15.6704 68.8763 13.8784 71.3508 13.0947 74.2453C10.3043 84.5527 20.2807 95.1732 28.3484 97.9922C31.3618 99.045 34.547 99.5562 37.7384 99.649C58.4853 100.253 85.9531 87.0647 87.3638 61.308C87.4144 60.3838 87.4268 59.4587 87.4031 58.5358C87.278 53.6452 86.0979 48.8822 84.3192 44.4598C84.32 44.46 72.7735 15.815 45.5271 22.7508Z" fill="#FFE4C0"/>
<g style="mix-blend-mode:multiply" opacity="0.5">
<path d="M20.4329 64.9492C20.7189 65.6507 21.0043 66.547 21.084 67.0597C21.424 69.2585 20.6715 71.5294 19.3649 73.1621C18.1244 74.7124 16.3528 75.7179 14.6374 76.0974C14.0583 76.2257 13.3571 76.2915 12.7439 76.3122C13.3901 69.944 18.5729 66.1217 20.4329 64.9492Z" fill="#FEB3A4"/>
</g>
<g style="mix-blend-mode:multiply" opacity="0.5">
<path d="M57.6848 81.6885C52.7769 80.6334 49.731 75.46 50.8817 70.1334C52.0323 64.8069 56.9438 61.3443 61.8517 62.3994C66.7596 63.4546 69.8055 68.6279 68.6548 73.9545C67.5042 79.281 62.5928 82.7437 57.6848 81.6885Z" fill="#FEB3A4"/>
</g>
<path opacity="0.3" d="M33.653 66.7909C33.653 66.7909 29.4606 62.8012 26.2149 66.5523L33.653 66.7909Z" fill="#633B1D"/>
<path d="M72.7452 86.6754C86.6946 93.6684 99.363 76.1207 95.3103 66.2596C92.7251 59.9696 85.1815 59.4824 80.8083 65.2296C78.2274 68.6215 76.1385 72.9569 74.9519 77.104" fill="#FFE4C0"/>
<path opacity="0.3" d="M84.241 71.0166C82.4452 72.8447 81.0013 75.5557 79.2271 77.0682C79.5558 74.538 80.0799 71.8361 81.3089 69.5558C82.5567 67.2398 84.8253 65.3316 87.1344 65.4882C89.9961 65.6826 92.3513 69.017 92.6532 72.0405C92.4727 70.2311 88.8355 69.0075 87.447 69.1792C85.2714 73.2801 84.4269 81.3618 84.4269 81.3618C82.6172 76.7872 83.3517 73.1886 84.241 71.0166Z" fill="#633B1D"/>
<path d="M29.0766 76.4507C27.1969 76.5028 25.3945 75.965 23.8422 74.3514C23.03 73.5079 22.2063 73.0436 21.0409 73.7652C18.2508 75.4933 17.5939 79.8106 18.3439 82.7053C19.1673 85.8817 21.6478 88.4425 24.5064 90.1127C32.1985 94.6069 38.0986 93.5955 45.9699 90.7226C52.1657 88.4619 60.5421 83.9046 58.4188 76.0613C55.7895 66.3503 44.4575 71.0129 38.0636 73.6325C35.3488 74.7458 32.1119 76.3664 29.0766 76.4507Z" fill="white"/>
<mask id="mask0_108_1110" style="mask-type:alpha" maskUnits="userSpaceOnUse" x="18" y="70" width="41" height="24">
<path d="M29.0756 76.4507C27.1959 76.5028 25.3935 75.965 23.8412 74.3514C23.029 73.5079 22.2053 73.0436 21.0399 73.7652C18.2498 75.4933 17.5929 79.8106 18.3429 82.7053C19.1663 85.8817 21.6468 88.4425 24.5054 90.1127C32.1975 94.6069 38.0976 93.5955 45.9689 90.7226C52.1647 88.4619 60.5411 83.9046 58.4178 76.0613C55.7885 66.3503 44.4565 71.0129 38.0626 73.6325C35.3478 74.7458 32.1109 76.3664 29.0756 76.4507Z" fill="white"/>
</mask>
<g mask="url(#mask0_108_1110)">
<path fill-rule="evenodd" clip-rule="evenodd" d="M54.7393 87.2375L46.6868 66.9105L45.5659 67.3548L53.6184 87.6818L54.7393 87.2375ZM38.1932 93.8053L32.6312 72.4761L31.4645 72.7805L37.0265 94.1097L38.1932 93.8053ZM21.6391 88.6554L24.7081 73.018L23.525 72.7857L20.456 88.4231L21.6391 88.6554Z" fill="#D1D3D4"/>
</g>
<path d="M38.5166 61.7907C41.2106 60.021 44.2882 60.1814 46.061 60.6286C46.2622 60.6794 46.423 60.4252 46.2779 60.2769C42.4576 56.3702 39.525 59.1159 38.2194 61.5436C38.1211 61.7263 38.3432 61.9046 38.5166 61.7907Z" fill="#2A1200"/>
<path d="M22.302 60.4239C22.3051 62.0239 23.0293 63.7422 24.8825 63.5447C26.4377 63.379 26.8348 61.3371 26.8328 60.332C26.8294 58.5739 25.9486 56.9129 24.6636 56.9104C23.2817 56.9078 22.2989 58.8239 22.302 60.4239Z" fill="#2A1200"/>
<path d="M39.4871 48.0446C42.2367 47.5974 45.1831 48.6249 47.161 50.709C47.7988 51.381 47.9772 52.5728 47.3109 53.3316C46.6953 54.0336 45.5754 54.2483 44.8928 53.5281C44.6882 53.3122 44.4746 53.1076 44.248 52.9179C44.1776 52.8588 43.9819 52.754 43.9203 52.6668C43.886 52.6441 43.8525 52.6215 43.8174 52.5996C43.6014 52.4636 43.3793 52.339 43.1519 52.2261C43.0215 52.1616 42.8901 52.1017 42.7569 52.0449C42.7148 52.0272 42.6727 52.0104 42.6299 51.9934C42.513 51.9731 42.3789 51.9098 42.2722 51.8807C42.1332 51.8426 41.9938 51.8094 41.8526 51.7799C41.6064 51.7287 41.3577 51.6901 41.108 51.665C41.073 51.6614 41.0386 51.6587 41.0035 51.656C40.8688 51.6567 40.7343 51.6541 40.5992 51.6596C40.312 51.6715 40.0262 51.7036 39.7415 51.7493C38.853 51.8942 37.9316 51.0193 37.9051 50.0584C37.8773 49.0007 38.5352 48.1997 39.4871 48.0446Z" fill="#351700"/>
<path d="M21.0267 51.2031C22.0252 49.829 23.4924 48.9272 25.0751 48.6655C25.5023 48.5949 26.001 48.7586 26.3341 49.0438C26.6625 49.3245 26.938 49.8195 26.9667 50.2815C26.9962 50.7612 26.9015 51.276 26.602 51.6532C26.2984 52.0357 25.9173 52.2786 25.4536 52.3559C25.3775 52.3684 25.3038 52.3898 25.2281 52.4063C25.0051 52.4832 24.7894 52.5783 24.579 52.6898C24.3397 52.8518 24.1156 53.0358 23.906 53.2417C23.8378 53.3236 23.7654 53.4019 23.702 53.4889C23.4283 53.8649 22.9894 54.1329 22.5535 54.1916C22.1363 54.2477 21.617 54.1136 21.2946 53.8125C20.9606 53.5009 20.6926 53.069 20.662 52.5748C20.6313 52.0822 20.7373 51.6011 21.0267 51.2031Z" fill="#351700"/>
<path d="M87.4595 58.5876C87.4832 59.5113 87.4708 60.4371 87.4202 61.3619C79.7584 62.6627 76.1297 70.8696 75.2731 74.8105C75.2731 74.8105 72.9933 74.9445 72.4569 74.509C69.6408 73.035 64.6321 66.9917 67.1264 54.6104C68.3333 48.9825 67.5287 44.5015 57.6722 37.5257C47.8158 30.5498 32.1259 34.9127 28.9075 37.5257C26.3327 39.616 25.0986 40.4066 24.8034 40.5406C31.6759 24.9549 45.5839 22.7768 45.5839 22.7768C72.8301 15.836 84.6422 43.6803 84.9284 44.3924C86.707 48.818 87.3344 53.6935 87.4595 58.5876Z" fill="#FFF4D4"/>
<path d="M18.2468 21.245C24.3618 23.4961 28.5056 32.9028 29.7125 36.9227C35.4453 34.1087 39.1666 33.9077 45.2012 33.7067C44.5307 31.5628 52.9456 25.0639 61.4945 26.0689C72.381 27.3487 78.8942 35.1137 79.3971 36.1187L85.4316 29.2848C67.4084 -1.58819 33.1321 11.0612 18.2468 21.245Z" fill="#FFD355"/>
<path d="M18.2468 21.245C24.3618 23.4961 28.5056 32.9027 29.7125 36.9227C35.4453 34.1087 39.1666 33.9077 45.2012 33.7067C44.5307 31.5628 52.9456 25.0639 61.4945 26.0689C72.381 27.3486 78.8942 35.1137 79.3971 36.1187L85.4316 29.2848C80.4028 23.6234 66.0003 13.4463 48.6208 18.029L18.2468 21.245Z" fill="#E2A700"/>
<path d="M18.2473 21.2449C24.3623 23.4961 28.506 32.9027 29.7129 36.9226C35.4458 34.1087 39.1671 33.9077 45.2017 33.7067C44.3971 27.114 48.7554 20.0724 50.2305 17.5265C41.4803 13.1046 22.2867 18.4813 18.2473 21.2449Z" fill="#FFC00C"/>
<path fill-rule="evenodd" clip-rule="evenodd" d="M11.4188 58.3371L21.2746 57.9828L21.375 55.8723L11.3739 56.3277L11.4188 58.3371Z" fill="#007F77"/>
<path fill-rule="evenodd" clip-rule="evenodd" d="M46.5756 45.7682C52.0411 46.6296 55.8372 52.2319 54.8616 58.4294C53.8859 64.6269 48.5525 68.7904 43.087 67.929C37.6215 67.0677 33.8254 61.4653 34.8011 55.2678C35.7767 49.0703 41.1101 44.9068 46.5756 45.7682ZM57.001 56.2554C56.8966 50.0954 52.8027 44.7149 46.8882 43.7827C40.1891 42.7269 33.9594 47.8199 32.8357 54.9581C32.8355 54.9595 32.8352 54.9609 32.835 54.9623C32.6283 54.879 32.4028 54.7989 32.1623 54.7289C31.4311 54.5162 30.5105 54.3858 29.552 54.586C29.4296 52.0738 28.6994 49.7671 27.5113 47.9454C26.0344 45.681 23.8104 44.1216 21.1662 43.9832C18.526 43.845 16.1136 45.1572 14.3426 47.2403C12.5711 49.324 11.3903 52.2263 11.1659 55.45C10.9415 58.6734 11.7108 61.6844 13.1865 63.947C14.6634 66.2115 16.8874 67.7708 19.5317 67.9092C22.1719 68.0474 24.5842 66.7352 26.3552 64.6522C28.0814 62.6218 29.2468 59.8142 29.5128 56.6893C30.2017 56.4074 30.932 56.4639 31.6061 56.66C32.026 56.7822 32.3929 56.9514 32.66 57.0947C32.6132 63.3986 36.749 68.9649 42.7744 69.9145C49.4735 70.9703 55.7032 65.8773 56.8269 58.7392C56.8496 58.5951 56.87 58.4513 56.8883 58.3076L74.2528 55.5089C77.5104 55.0581 80.762 55.2076 83.1633 56.0143C85.572 56.8234 86.8433 59.8001 86.8815 61.6486L88.8711 61.6007C88.8076 58.5274 86.577 55.0413 83.7965 54.1073C81.0112 53.1717 77.4259 53.0409 73.9769 53.5196L73.9662 53.5211L57.001 56.2554ZM25.8483 49.0541C27.0609 50.9133 27.7437 53.4781 27.5468 56.3075C27.3498 59.1366 26.3157 61.6181 24.8469 63.3458C23.3774 65.0742 21.5238 66.001 19.6405 65.9024C17.7613 65.8041 16.0609 64.6956 14.8495 62.8383C13.637 60.9792 12.9542 58.4144 13.1511 55.585C13.348 52.7559 14.3821 50.2743 15.851 48.5466C17.3204 46.8183 19.1741 45.8915 21.0573 45.99C22.9365 46.0884 24.637 47.1968 25.8483 49.0541Z" fill="#2FBBB3"/>
</svg>
